<svg xmlns="http://www.w3.org/2000/svg" width="796.42" height="480.982"><defs><filter id="a" x="3.547" y="0" width="792.874" height="480.982" filterUnits="userSpaceOnUse"><feOffset dy="3"/><feGaussianBlur stdDeviation="10" result="blur"/><feFlood flood-opacity=".78"/><feComposite operator="in" in2="blur"/><feComposite in="SourceGraphic"/></filter></defs><g transform="translate(-.002 -.002)" filter="url(#a)"><path data-name="Path 7" d="M356.432 35.6c-16 2.4-25.593 31.991-25.593 31.991h-28.792l-17.6-12V35.6l-15.2-8-4.8 4 4.8 15.2-20.794 20.794-71.18 23.194-12.8 14.4-28.792 22.394-39.189 22.394-16-4.8-24.793 4.8s-9.6 14.4-13.6 19.995-8 17.6-8 17.6l21.594 19.994 9.6 19.195s-12.8 22.394-13.6 24.793 12 16.8 13.6 23.194 8 24.793 8.8 29.592 16 6.4 18.395 7.2 26.393 20.794 29.592 27.992 21.611 24.779 24.81 28.779 23.194 21.594 23.194 21.594 27.192 10.4 28.792 13.6 19.995 25.593 19.995 25.593 12 6.4 14.4 8 8 10.4 15.2 10.4 45.587-5.6 45.587-5.6l16.8-25.593 12.8-17.6 12-25.593s16.8 12 20.794 12 33.591 4 37.59 4.8 45.587 18.395 45.587 18.395l23.194 13.6 26.393 7.2 24.793-16 15.2 3.2 18.395 12.8 20.794-7.2 11.2-18.395 27.992 4.8 24.793 4.8 19.995-23.194s14.4-6.4 15.2-9.6 19.962-18.407 19.962-18.407-1.6-23.194 0-22.394 22.394-12.8 26.393-16 11.2-17.6 14.4-19.195 10.4-12.8 10.4-12.8h27.193v-16.8l-17.6-6.4-9.6-24.793-31.191-16.8-19.995-9.6-23.993 4.8-22.394-19.195-20.794-20.794-18.395-12-22.394-13.6-5.6 13.6-10.4 17.6-23.993 15.2-20.794 4.8-19.195-8.8-10.4-22.394-13.6-19.994-12.8-11.2-8-8.8 20.794-27.192-35.99 11.2-13.6-19.195s-9.6-9.6-13.6-10.4-33.591-13.6-33.591-13.6l-22.394-9.6z" fill="#fff" stroke="#707070"/></g><path data-name="Path 4" d="M159.115 396.505a1.5 1.5 0 00.3.348 7.381 7.381 0 003.266 1.686v-3.143c0-.122.158-.193.175-.3.123-.614.14-1.194.7-1.475a11.67 11.67 0 011.124-.351c.562-.211.808-.561 1.4-.561.633 0 .808.649 1.4.842a4.283 4.283 0 001.494.21c1.369 0 2.124-.018 3.493-.018a8.156 8.156 0 00.21 2.265c.211.843.615 1.685 1.493 1.685h1.44a9.211 9.211 0 001.492-.35 6.674 6.674 0 010 1.562c0 1.4.948 2 1.474 3.283a37.359 37.359 0 011.054 2.88 1.907 1.907 0 00.421.632 10.806 10.806 0 011.615 2.387c.14.316.053.6.281.843.14.158.352.14.562.211a4.636 4.636 0 001.7.281h1.58c.281 0 .439.141.72.141.912 0 1.176-.808 1.966-1.264.21-.124.316-.281.562-.281.316 0 .387.332.491.631a7.381 7.381 0 01.421 1.475 14.852 14.852 0 00.492 2.107 23.732 23.732 0 001.124 2.669 4.169 4.169 0 002.738 3.16 3.742 3.742 0 011.545 2.107c.386.861 1.124 1.018 1.616 1.826a3.609 3.609 0 01.421 2.388c-.387.527-.773.877-.773 1.545 0 .439.387.649.773.843a8 8 0 011.123.492c.106.07.106.21.21.281a11.178 11.178 0 011.9 1.474c.106 0 .3-.141.4-.141.246 0 .352-.158.58-.211a6.6 6.6 0 011.9-.491c.438 0 .613.4.912.7a10.428 10.428 0 00.843.7c.527.456.877.668 1.4 1.123 1.176 1.018 1.7 1.773 2.809 2.88.615.613 1 .93 1.616 1.545a11 11 0 001.826 1.686 6.52 6.52 0 002.6 1.474c1.264.246 1.967.281 3.23.492.421.07.79.017 1.124.281.281.21.263.525.421.842.228.473.527.684.773 1.124a11.5 11.5 0 00.632 1.124c.334.456.737.562 1.194.912.35.263.473.58.843.773.526.28.894.456 1.4.772.579.352 1.193.58 1.193 1.264 0 .281-.263.421-.491.562-.474.281-.72.544-1.194.843-.58.369-.86.65-1.4 1.054a20.011 20.011 0 00-1.755 1.264c-.439.385-.65.7-1.123 1.053a3.516 3.516 0 011.474 1.475c.158.315.106.6.352.843.368.368.859.21 1.4.21a7.48 7.48 0 00.21 1.9c.123.368.474.473.7.772a7.589 7.589 0 01.633.843c.1.193.1.421.281.562.369.315.878.053 1.194.421.386.456.527 1.018 1.123 1.054.492.035.773-.089 1.264-.071 1.106.053 1.492 1.194 2.6 1.194.666 0 .983-.421 1.545-.773.4-.246.579-.631 1.053-.631.4 0 .632.245.983.422a3.567 3.567 0 001.9.491c1.176 0 1.808-.561 2.985-.561a5.007 5.007 0 012.212.632 21.1 21.1 0 002.247.772c.122.035.157.175.281.211a6.622 6.622 0 002.4.421h2.212a5.008 5.008 0 012.756.983c.649.369 1.158.351 1.826.7.861.438 1.123 1.088 1.616 1.9.368.6.983.615 1.4 1.195a2.424 2.424 0 00.632.7 2.482 2.482 0 011.616-1.335c.719-.281 1.175-.491 1.9-.772.684-.265 1.141-.334 1.826-.562.352-.106.562-.281.913-.421.316-.124.772-.141.772-.492 0-.421-.263-.632-.281-1.053-.053-.966-.193-1.493-.281-2.458h.544c.527 0 .791.352 1.317.352a15.8 15.8 0 001.581-.071c.281.018.421.071.7.071s.385-.229.562-.421a5.481 5.481 0 001.193-1.756 6.09 6.09 0 00.352-1.967 24.247 24.247 0 00.21-3.37c0-.351-.07-.562-.07-.912 0-.246.281-.317.491-.421a7.943 7.943 0 00.843-.421 5.211 5.211 0 011.4-.843 3.539 3.539 0 00.562 1.4c.527.719 1.51.613 1.756 1.474.158.544.175.877.351 1.4.106.334.141.633.421.843.263.193.527.141.843.211a17.191 17.191 0 002.528.281c.387.035.615.158.983.211a2.7 2.7 0 011.756.773c.491.491.544.947 1.053 1.4.316-.23.456-.457.773-.7a9.764 9.764 0 012.6-1.545c.562-.229 1.054-.211 1.4-.7.527-.755.544-1.4 1.054-2.177.088.018.192-.035.281 0 .315.175.332.527.491.842a4.108 4.108 0 01.352.914 24.639 24.639 0 01.491 3.23h.544c.6 0 .825-.562 1.422-.562.58 0 .773.6.983 1.124a11.815 11.815 0 00.7 1.193 8.968 8.968 0 01.492 1.685c.1.334.192.773.561.773.245 0 .351-.193.562-.281a3.064 3.064 0 011.281-.421h1.72a1.125 1.125 0 001.142-.562c.123-.3-.053-.545.071-.843.263-.614.825-.755 1.264-1.264.175-.211.421-.281.421-.562 0-.158-.211-.14-.281-.281a3.845 3.845 0 01-.562-1.9c0-.456.228-.684.351-1.123a8.327 8.327 0 00.562-2.669c0-.965-.7-1.422-.7-2.388a5.991 5.991 0 01.211-1.124c.21-1.3.509-2 .7-3.3a9.66 9.66 0 01.491-1.826c.228-.685.122-1.247.633-1.756.158-.159.368-.176.562-.281.912-.561 1.14-1.439 2.176-1.685.79-.193 1.264-.035 2.037-.281.843-.281.719-1.176 1.193-1.9.14-.23.352-.246.562-.421a13.32 13.32 0 001.4-1.194l-.315-.281v-2.073c0-1.124 1.158-1.51 1.158-2.634v-1.511a1.835 1.835 0 01.421-1.141c.071-.1.211-.1.281-.21.3-.439.369-1.054.914-1.054 1.088 0 1.649.633 2.738.633 1.054 0 1.4-1.124 2.458-1.124.281 0 .281.334.421.562a9.458 9.458 0 00.631.843 1.907 1.907 0 001.335.772c.473.089.79-.017 1.264.07.351.07.509.316.843.421a2.247 2.247 0 00.843.07c.666 0 1.053-.21 1.72-.21a2.261 2.261 0 011.369.562c.228.14.263.352.422.561a1.593 1.593 0 00.843.633c.245-.177.3-.421.562-.562.4-.211.719-.246 1.124-.492a1.37 1.37 0 00.7-1.264c0-.755-.561-1.036-.913-1.685a11.228 11.228 0 01-.772-1.686 3.244 3.244 0 01-.352-1.264c0-.352.263-.456.421-.773a5.726 5.726 0 00.421-1.544 20.263 20.263 0 00.492-2.036 10.189 10.189 0 01.281-1.475 6.348 6.348 0 01.14-.843c.245-.684.895-.772 1.474-1.193a3.765 3.765 0 01-.772-.983 1.763 1.763 0 01-.352-.861v-1.369a6.742 6.742 0 01.352-1.422c.211-1.071.263-1.686.491-2.739a13.016 13.016 0 01.562-1.826 5.044 5.044 0 00.633-1.9 4.441 4.441 0 00-.492-1.826 8.856 8.856 0 01-.843-2.739c-.035-.351-.193-.509-.193-.86v-3.406c0-.333-.141-.527-.158-.861a25.734 25.734 0 01-.071-2c0-.649-.122-1.16.281-1.651.228-.281.544-.316.843-.492a1.712 1.712 0 00.633-.843c.21-.421.561-.579.561-1.053 0-.3-.281-.421-.352-.7a2.84 2.84 0 01-.07-.773c0-.3-.158-.579.07-.772.527-.439 1.123-.228 1.756-.492.316-.122.316-.456.562-.7a1.865 1.865 0 01.561-.281c.141-.07.245-.21.421-.21.333 0 .369.368.631.562a2.144 2.144 0 001.4.351c1.106 0 1.7-.351 2.809-.351.106.649.018 1.053.141 1.686a1.161 1.161 0 00.352.842c.263.193.526.106.843.211.526.176.877.229 1.4.421.579.211.912.562 1.545.562.175 0 .263-.141.421-.21a3.338 3.338 0 011.615-.492 9.114 9.114 0 012.388.352 3.536 3.536 0 01.843.351c.387.193.773.4.773.843 0 .614-.352.931-.352 1.545 0 .562.509.755.843 1.195a3.6 3.6 0 01.492 1.123 2.028 2.028 0 01.21.7c0 .439-.387.6-.562.983a2.782 2.782 0 00-.21 1.264 6.084 6.084 0 00.21.983 4.48 4.48 0 010 .843c.14-.018.211.07.352.07.281 0 .332-.351.562-.491a4.826 4.826 0 011.4-.633 3.159 3.159 0 001.545-1.124 4.175 4.175 0 013.441-1.334c.369 0 .561.246.914.351a9.573 9.573 0 002.457.352c.334.018.509.141.843.141.352 0 .352-.439.421-.773a2.435 2.435 0 01.421-.912c.352-.474.808-.6 1.054-1.123.088-.211.123-.4.21-.633.492-1.264-.07-2.229.421-3.511.492.246.93.352 1.124.843.175.439.106.755.281 1.194.053.141.193.175.281.281a2.158 2.158 0 001.72.983c1.475 0 2.072-1.335 3.547-1.335 1.316 0 2.018.562 3.23 1.054 1.106.439 1.967.509 2.738 1.4.4.474.474 1.053 1.054 1.264a4.889 4.889 0 011.4.562 2.048 2.048 0 01.562.843 1.743 1.743 0 001.633.912h2.913c.878 0 1.036.949 1.844 1.264a9.1 9.1 0 002.106.421c.212.3.421.457.633.773.65.949.544 1.773 1.053 2.809a2.217 2.217 0 00.843.912c.228.141.315.37.562.492a6.747 6.747 0 001.966.632c.914.229 1.3.808 2.178 1.123.473.158.807.158 1.264.352.579.246.859.631 1.492.631.807 0 1.264-.07 2.071-.07.562 0 .861-.211 1.423-.211.334 0 .421.3.633.561a2.244 2.244 0 00.912.633c.7.35 1.142.527 1.826.842.649.3 1 .58 1.616.912a5.113 5.113 0 011.755 1.124c.369.439.456.861.914 1.194a15.938 15.938 0 012.247 1.685c.6.6.93.983 1.545 1.545a7.428 7.428 0 01.7.772c.157.177.245.421.491.421.492 0 .72-.385 1.124-.631a7.789 7.789 0 011.194-.633 7.41 7.41 0 001.967-.772 2.25 2.25 0 00.7-1.194 13.846 13.846 0 01.843-1.615c.245-.474.509-.877 1.053-.914l5.618.983a3.537 3.537 0 01.843-.491c.828.648 1.139 1.663 1.966 2.247 1.56 1.1 2.873 1.416 4.494 2.528.835.572 1.047 1.49 1.967 1.967a4.683 4.683 0 002.117.4 4.367 4.367 0 01.2 1.5c.315-.017.473-.07.79-.07a1.425 1.425 0 011.387 1.439c0 .509-.281.79-.281 1.3 0 .58.369.861.773 1.264a3.75 3.75 0 00.631.562c.755.527.983 1.072 1.756 1.545.6.37.86.72 1.474 1.054a8.221 8.221 0 011.195.7 3.285 3.285 0 00.561.421c.438.228.754.333 1.194.561 1.106.6 1.667 1.053 2.809 1.616a17.81 17.81 0 012.528 1.264c.65.368 1.036.613 1.686.983a4.175 4.175 0 002.265.843h1.369c.158 0 .211-.124.37-.141a7.042 7.042 0 011.053-.071c.843 0 1.264.492 2.107.492 1.386 0 2.141-.561 3.529-.561.947 0 1.474.07 2.423.07a8.533 8.533 0 01.93.141c1.282.141 1.966.28 3.231.492.228.035.386.175.632.21 1.228.193 1.931.088 3.16.211.65.052 1.036.192 1.686.21a6.061 6.061 0 012.458.211c.271.108.491.184.8.283.165.268.257.515.392.77a1.3 1.3 0 001.124.562c.408.04.765-.367 1.123-.562.413-.226.281-1.124.843-1.124 2.107 0 2.669 2.529 4.776 2.529.7 0 .908-.71 1.4-1.124a11.686 11.686 0 001.966-1.966c1.6-2.117 2.107-3.652 3.933-5.618 1.134-1.222 2.2-1.8 2.528-3.09.176-.695.325-1.358.454-2 .421.175.494.433.95.521a7.051 7.051 0 001.37 0 15.415 15.415 0 002.844-.21c.58-.088.9-.316 1.475-.421a14.536 14.536 0 011.755-.141c.58-.035.9-.212 1.475-.212.544 0 .631.58 1.053.914a7.015 7.015 0 001.123.772c.755.421 1.387.527 2.178.914a3.239 3.239 0 011.4 1.193c.3.439.369 1.054.912 1.054a8.062 8.062 0 001.826-.281 9.664 9.664 0 00.983-.141c.861-.263 1.211-.913 2.107-.913.421 0 .58.386.843.7a1.468 1.468 0 00.562.421 8.992 8.992 0 011.124.633 1.5 1.5 0 01.492 1.123 5.876 5.876 0 01.14 1.106v3.757a7.4 7.4 0 00.21.9c.071.474.071 1.124.562 1.124.439 0 .649-.281 1.054-.421.93-.334 1.456-.544 2.388-.912a2.569 2.569 0 011.053-.352c.281 0 .456.246.561.492a4.578 4.578 0 00.492.912 4.336 4.336 0 00.912 1.124 7.4 7.4 0 002.6 1.545 15.146 15.146 0 002.669.633 8.382 8.382 0 01.912.21c.509.159.79.492 1.335.492.649 0 .983-.37 1.614-.492a4.766 4.766 0 011-.07h2.563a3.523 3.523 0 002.756-1.195c.456-.457.6-.878 1.123-1.245.282.648.94.921 1.4 1.385 1.194 1.194 2.247 1.966 2.247 3.652 0 .7-.561.983-.561 1.686 0 .983.88 1.343 1.123 2.247.458 1.695.141 2.74.281 4.494a15.317 15.317 0 00.843 4.495c.12.338-.119.766 0 1.124.161.484 1.272.113 1.553.535 1.375-4.126 2.383-6.856 4.065-10.928.925-2.241 2.332-3.228 2.809-5.618.153-.768-.235-1.482 0-2.247.607-1.974 1.88-2.771 3.09-4.495a47.914 47.914 0 003.09-4.495c1.321-2.394 3.3-2.813 4.775-5.056.7-1.056.253-2.114.562-3.371.674-2.745 3.513-3.018 5.9-4.494a12.087 12.087 0 004.966-5.318c.3.051.318.4.581.472a4.6 4.6 0 001.194.211 10.31 10.31 0 011.474.141 6.53 6.53 0 011.545.631c.527.229.861.3 1.4.492a19.872 19.872 0 002.88 1.264 2.742 2.742 0 011.123.351c.245.159.263.387.421.633a1.8 1.8 0 001.053.772 5.2 5.2 0 001.475.281c.332.018.579-.1.843.071.192.123.245.351.35.562a9.32 9.32 0 001.545 2.247 6.524 6.524 0 00.421.562c.861.861 1.686.912 2.809 1.334a7.21 7.21 0 002.809.7 3.326 3.326 0 002.388-.983c.421-.368.6-.754 1.124-.912.4-.122.808.123 1.124-.14.263-.228.14-.527.281-.843a2.207 2.207 0 011.054-1.195c.438-.245.7-.438 1.124-.7.245-.141.4-.351.7-.351.4 0 .632.246.983.422.649.351 1.035.543 1.686.912.877.51 1.439.651 2.317 1.195.825.51 1.246.878 2.037 1.4.123.07.141.21.281.281.192.088.368.106.562.211.649.352.93.983 1.686.983.4 0 .421-.491.7-.772a2.6 2.6 0 011.124-.773 5.262 5.262 0 011.966-.141 3.566 3.566 0 001.264.352c.631 0 .983-.579 1.123-1.194a13.791 13.791 0 00.281-1.9h.843l1.264.281a1.647 1.647 0 001.193-1.195c.159-.438.106-.79.421-1.123a1.1 1.1 0 01.861-.351h1.93a11.332 11.332 0 003.67-.633 5.808 5.808 0 001.123-.281c.439-.21.684-.421 1.124-.631a6.368 6.368 0 002.528-2.247c.492-.668.949-1 1.4-1.686.4-.6.877-.773 1.194-1.4.544-1.106.7-1.932 1.686-2.669a14.116 14.116 0 011.4-.843c.228-.141.438-.193.561-.421.245-.421.21-.914.632-1.123a4.053 4.053 0 011.123-.281c.65-.123 1.018-.352 1.686-.421a5.332 5.332 0 002.037-.492c.438-.211.632-.562 1.124-.562.877 0 1.211.7 2.036.983a6.328 6.328 0 002.247.562c.141 0 .158-.158.281-.21.509-.281.6-.72.842-1.264a9.747 9.747 0 00.562-1.756c.369-1.492 1.475-2.124 1.475-3.652a4.8 4.8 0 00-.071-1.124 6.559 6.559 0 01-.351-1.4 1.1 1.1 0 01.351-.772 8.832 8.832 0 001.335-1.686c.158-.3.351-.474.351-.824v-2.072a6.55 6.55 0 01.14-1.176c.035-.228.035-.492.211-.633.315-.281.719-.14 1.124-.281.333-.123.509-.3.843-.421.421-.175.719-.175 1.124-.351.316-.141.491-.352.843-.352a4.008 4.008 0 011.967.632c.263.123.4.351.7.351.473 0 .684-.351.983-.7.245-.3.4-.526.631-.843a13.156 13.156 0 002.529 1.4c.158.036.246.14.421.14a3.973 3.973 0 001.545-.421c.878-.315 1.386-.6 2.247-.983a7.965 7.965 0 001.4-.7c.352-.228.421-.613.773-.843a3.548 3.548 0 001.4-1.474c1.352-1.352 1.527-2.581 2.107-4.354.385-1.158.666-1.808 1.123-2.95.21-.561.562-.861.562-1.475 0-.842-.352-1.3-.352-2.142a2.542 2.542 0 01.562-1.51c.193-.3.421-.473.421-.843 0-.613-.386-.947-.772-1.4a5.268 5.268 0 01-.561-.843c-.177-.281-.492-.369-.492-.7 0-.421.246-.649.492-.983a4.025 4.025 0 011.052-.983 8.6 8.6 0 001.054-1.053 7.585 7.585 0 01.983-.7.708.708 0 00.351-.561c0-.65-.912-.755-.912-1.4a9.581 9.581 0 01.421-1.966 4.529 4.529 0 00.14-.843c0-.334-.106-.544 0-.843.088-.263.351-.315.562-.492a3.269 3.269 0 00.772-1.053 5.479 5.479 0 00.913-3.072v-1.721c0-.526-.773-.579-.773-1.106 0-1.036.14-1.633.211-2.669.052-.7.035-1.317.631-1.686.843-.527 1.475-.6 2.318-1.123.351-.211.385-.58.491-.983a4.758 4.758 0 00.281-1.4c0-.368-.21-.544-.21-.914 0-.351.456-.368.772-.491.544-.211.842-.352 1.4-.562a5.313 5.313 0 001.264-.632c.421-.281.615-.7 1.124-.7 1.106 0 1.738.212 2.844.212a6.28 6.28 0 003.336-.914c1.335-.7 2.353-.578 3.652-1.334a8.767 8.767 0 011.475-.562c.122-.035.158-.158.281-.211a11.9 11.9 0 011.686-.562 18.588 18.588 0 003.721-1.264 15.47 15.47 0 003.582-4.143 17.6 17.6 0 00.843-2.809c.316-.913 1.124-1.264 1.124-2.247 0-1.58-1.019-2.353-1.124-3.933h1.649a3.669 3.669 0 011.721.421c.421.175.632.562 1.124.562.947 0 1.264-.983 1.686-1.826a4.355 4.355 0 011.4-1.686 6.066 6.066 0 001.686-2.528c.351-.737.947-1.018 1.4-1.686a9.966 9.966 0 01.983-1.685c.491-.527 1.193-.316 1.685-.843.1-.14.07-.387.141-.562.316-.633.385-1.3.983-1.686.351-.211.737.106 1.124 0a1.375 1.375 0 00.983-1.4 6.384 6.384 0 00-.562-2.809c-.212-.492-.6-.6-.843-1.124.6-.421 1.052-.7 1.685-1.123.842-.562 1.193-1.545 2.247-1.545.491 0 .632.7 1.124.7.7 0 .807-.773 1.124-1.4l.491.07.843-.21c.141.421.106.7.211 1.124a1.692 1.692 0 001.474 1.4l7.725-1.686c.421.141.562.439.913.7a1.827 1.827 0 001.211.351h1.439c.562 0 .755.474 1.211.773a4.847 4.847 0 002.95 1.264 1.118 1.118 0 00.843-.492c.175-.192.386-.281.561-.491.474-.544.65-1 1.264-1.335 1.089-.6 1.844-.719 2.88-1.4.93-.614 1.72-.421 2.809-.632a14.957 14.957 0 001.686-.633c.316-.1.6-.035.912-.14a2.929 2.929 0 00-.421-.842c-.193-.3-.492-.474-.492-.843 0-.474.492-.615.843-.913.193-.159.281-.351.492-.491.3-.193.613-.229.843-.492a1.547 1.547 0 00.281-1.158 2.5 2.5 0 00-.7-2c-.51-.51-1.089-.6-1.335-1.264-.106-.3-.106-.545-.21-.843-.246-.685-.65-.983-.843-1.685a4.668 4.668 0 01-.071-1.4c0-.545.071-.86.071-1.4 0-.562-.632-.755-.632-1.317v-2.313a3.035 3.035 0 00-.422-1.667c-.122-.21-.228-.368-.351-.562-.14-.228-.439-.3-.492-.562a3.2 3.2 0 010-.58v-1.264a3.563 3.563 0 000-.965c-.228-.93-.668-1.37-.843-2.317a4.379 4.379 0 01-.21-.826v-1.51c0-.473.07-.807-.211-1.175s-.684-.264-1.124-.421a4.584 4.584 0 00-1.72-.492c-.474 0-.72.211-1.194.211-.351 0-.526-.281-.737-.562a2.522 2.522 0 00-1.053.7 3.27 3.27 0 01-.7.772c-.106.053-.141.211-.281.211a1.241 1.241 0 01-1.054-.7c-.106-.176-.106-.386-.21-.562-.352-.545-.966-.352-1.616-.352a10.815 10.815 0 00-.491-1.826 11.226 11.226 0 01-.843-1.193c-.193-.334-.386-.632-.773-.632-.877 0-1.37.211-2.247.211a3.144 3.144 0 01-1.826-.633c-.334-.193-.386-.543-.631-.843-.053-.07-.193-.018-.281-.07-.193.263-.3.562-.633.562-.439 0-.631-.3-.983-.562a7.959 7.959 0 00-1.474-.913c-.545-.615-1.106-1.018-1.264-1.826-.018-.159.07-.263.07-.44v-1.615a3.747 3.747 0 00-.491-1.948c-.352-.667.016-1.247-.211-1.966-.106-.334-.3-.51-.422-.843-.316-.842-.21-1.4-.491-2.247-.141-.457-.352-.738-.492-1.195a17.591 17.591 0 00-1.967-3.721c-.123-.246-.3-.317-.421-.562a15.816 15.816 0 01-.465-1.892H389.292L159.129 396.505z" fill="#d7141a"/><path data-name="Path 5" d="M748.96 234.69a12.248 12.248 0 01-1.756-.562c-.79-.387-1.018-1-1.474-1.756-.246-.4-.561-.632-.561-1.124 0-1.246.772-1.808 1.052-3.019.071-.334.053-.58.14-.913.053-.21.211-.315.211-.544v-.861h-1.317c-.228 0-.352.123-.58.14-.334.035-.527-.122-.843-.069-.387.069-.562.35-.843.631a4.581 4.581 0 00-.983 1.123c-.123.228-.07.492-.281.633a1.583 1.583 0 01-.983.281 5.682 5.682 0 01-2.106-.281c-.281-.089-.368-.3-.632-.421a3.885 3.885 0 00-1.475-.562c-.334-.036-.562.07-.843-.071-.334-.158-.421-.456-.631-.772a3.015 3.015 0 00-.843-.7 7.963 7.963 0 00-1.475-.913c-.684-.316-1.124-.544-1.826-.843-.4-.175-.79-.193-.983-.562-.263-.474-.122-.86-.209-1.4h-1.756c-1.44.122-2.247.352-3.687.352a8.235 8.235 0 01-1.861-.141c-.72-.14-1.089-.492-1.826-.492-.439 0-.615.334-.983.562-.317.193-.632.334-.632.7 0 .122.14.158.14.281 0 .228-.123.352-.21.562-.58-.14-.808-.474-1.4-.562-.246.615-.141 1.054-.352 1.686a1.913 1.913 0 01-.843.983c-.351-.4-.667-.6-1.053-.983-.4-.4-.545-.755-.983-1.124a14.33 14.33 0 01-1.335-1.194c-.6-.65-1.124-1.072-1.193-1.966-.018-.246.07-.37.07-.615v-1.65c0-.843-.737-1.211-1.474-1.6a5.249 5.249 0 00-2.247-.843l-2.212.421c-.773-.069-1.036-.808-1.229-1.544a12.033 12.033 0 01-.281-2.107c-.053-.491-.053-.877-.421-1.193-.421-.37-.9-.158-1.474-.211a15.168 15.168 0 00-1.756-.21c-.334 0-.6-.14-.843.069-.263.228-.175.562-.281.913a9.7 9.7 0 01-.772 1.686 7.87 7.87 0 01-2.6-1.826 1.9 1.9 0 00-1.334-.7 3.414 3.414 0 00-1.194.21c-.21.071-.334.211-.562.211-.333 0-.421-.334-.562-.633-.158-.315-.316-.544-.491-.843a5.512 5.512 0 00-.562-.842c-.37-.439-.7-.721-.7-1.3 0-.492.21-.738.21-1.23 0-.439-.422-.579-.562-.983a5.8 5.8 0 01-.209-1.474 3.366 3.366 0 00-.212-1.124c-.053-.123-.175-.123-.281-.211a2.166 2.166 0 00-1.124-.491c-.456-.089-.878-.018-1.124-.421-.316-.51-.3-.913-.632-1.4-.281-.421-.7-.439-1.124-.7a6.676 6.676 0 01-1.124-.983c-.089-.071-.071-.281-.211-.281-.316 0-.439.281-.7.421a2.48 2.48 0 00-.843.7 4.284 4.284 0 01-1.474.983 2.7 2.7 0 01-1.335.491l.106.562c0 1.071-.071 1.668-.035 2.739a3.5 3.5 0 01.035 1.124h.79c.246 0 .351-.212.58-.281a17.92 17.92 0 002.247-.913 5.021 5.021 0 011.159-.561v1.948a7.408 7.408 0 01-.316 1.844c-.089.421-.211.7-.281 1.124-.053.315 0 .614-.212.843-.246.263-.527.263-.843.421-.58.281-.9.633-1.545.633a8.43 8.43 0 01-2.457-.421 9.338 9.338 0 00-1.124-.352 7.434 7.434 0 01-2.6-.7c-.088.035-.21.035-.281.071-.228.157-.281.4-.491.562a8.4 8.4 0 00-1.967 1.826c-.089.123-.123.228-.211.351-.368.492-.755.668-1.053 1.195-.386.666-.7 1.211-1.475 1.334l-2.036-.351a6.51 6.51 0 00-1.335.21 2.13 2.13 0 00-.843.421c-.263.193-.3.562-.632.562-.317 0-.439-.263-.7-.421-.421-.263-.7-.421-1.124-.7a6.677 6.677 0 01-.773-.631c-.387-.352-.79-.421-1.124-.843-.228-.3-.281-.615-.561-.843-.175-.141-.421-.053-.562-.211-.122-.141-.088-.368-.141-.562-.21-.737.018-1.229-.21-1.966-.14-.474-.7-.474-1.195-.562a8.437 8.437 0 00-1.755-.21 2.4 2.4 0 01-1.124-.071c-.37-.159-.386-.6-.7-.843a2.742 2.742 0 00-.561-.351c-.089-.036-.212.035-.281 0-.37-.264-.334-.667-.421-1.123a7.59 7.59 0 01-.211-1.545c0-.3.088-.474.071-.773a2.086 2.086 0 00-.773-1.474c-.421-1.264-1.018-2-1.334-3.3-.352-1.422-.386-2.546-1.545-3.44-.229-.176-.4-.264-.633-.421a6.213 6.213 0 01-1.4-1.616 9.725 9.725 0 01-.843-1.194c-.755-1.37-2-1.457-3.3-2.318a2.864 2.864 0 00-.913 2.037c-.878-.141-1.211-.615-1.966-1.054a3.144 3.144 0 01-1.264-.843c-.631-.842-.491-1.632-1.052-2.528a2.293 2.293 0 00-1.054-.843c-.93-.509-1.439-.912-2.388-1.4a4.987 4.987 0 01-1.124-.7c-.877-.755-.755-1.72-.843-2.878-.018-.334-.21-.51-.21-.843 0-.317.351-.387.631-.492.316-.106.509-.263.843-.351a40.1 40.1 0 012.107-.492c1.58-.351 2.475-.58 4.073-.843a21.278 21.278 0 002.95-.562c.14-.035.211-.175.352-.21a5.091 5.091 0 001.755-.913c.106-.07.141-.193.211-.281a3.111 3.111 0 00.983-1.755c.035-.334-.018-.562 0-.913a6.783 6.783 0 011.4.421 4.607 4.607 0 001.3.071c.456 0 .843.1 1.159-.211.246-.246.211-.509.281-.843a6.858 6.858 0 00.141-1.474 6.036 6.036 0 01.632-2.669c.21-.439.562-.632.562-1.123s-.387-.7-.773-.983c-.615-.457-1.036-.651-1.686-1.054a18.158 18.158 0 01-1.474-1.123 1.619 1.619 0 01-.843-1.334c0-.826.473-1.213.772-1.967a6.672 6.672 0 01.914-1.756c.509-.684 1.053-.948 1.334-1.755.158-.457.228-.755.421-1.195.141-.334.421-.474.421-.843 0-.386-.351-.526-.631-.772-.211-.177-.317-.37-.562-.492-.7-.386-1.124-.562-1.826-.983a5.315 5.315 0 01-1.194-.983 7.732 7.732 0 00-.983-.7c-.474-.368-.65-.7-1.124-1.053a1.81 1.81 0 00-.491.772c-.088.246-.211.386-.281.632-.352 1.194-.317 1.914-.633 3.09a4.305 4.305 0 01-1.9 2.458 16.269 16.269 0 01-1.688 1.169c-.333.192-.51.421-.843.631a13.842 13.842 0 01-3.511 1.967 10.609 10.609 0 01-3.09.281c-.72.053-1.124.211-1.844.211-1.352 0-2.125-.071-3.476-.071a7.2 7.2 0 01-1.492-.281 13.251 13.251 0 01-2.036-.491c-.686-.229-1.036-.632-1.774-.632h-1.369c-.352 0-.527.175-.861.281a8.114 8.114 0 00-2.247 1.264 18.308 18.308 0 00-3.09 2.528 6.8 6.8 0 00-.772-1.4c-.51-.65-1.142-.808-1.545-1.545a4.844 4.844 0 01-.281-1.264c-.106-.421-.492-.527-.914-.631a8.435 8.435 0 00-1.124-.211c-.58-.088-.965-.106-1.545-.21a5.262 5.262 0 00-.912-.211c-.685 0-1.054.633-1.264 1.264-.158.492-.352.773-.492 1.264a3.013 3.013 0 01-.562 1.4 2.808 2.808 0 01-.631-1.686 2.312 2.312 0 00-.352-1.193c-.158-.246-.421-.334-.421-.633 0-.825.738-1.124.983-1.9.159-.51.088-.879.211-1.4.088-.386.351-.579.351-.983a1.348 1.348 0 00-.562-1.264c-.106-.053-.246-.018-.351-.071-.229-.122-.3-.315-.421-.561-.124-.263-.281-.4-.281-.7 0-.755.983-.912.983-1.668 0-.124-.071-.176-.071-.3a8.443 8.443 0 00-1.474.492c-.089.035-.193-.036-.281 0a3.94 3.94 0 00-.632.422 19.187 19.187 0 01-1.9.7 4.344 4.344 0 01-1.826.562c-.4 0-.615-.281-.983-.421-.421-.177-.685-.317-1.123-.492-.7-.281-1.195-.21-1.9-.491-.228-.089-.351-.193-.562-.281a3.433 3.433 0 01-1.755-1.194c-.51-.755-.738-1.246-1.264-1.966a5.185 5.185 0 00-1.545-1.545 7.472 7.472 0 01-1.4-1.053 2.128 2.128 0 01-.7-.773 6.069 6.069 0 01-.352-1.966c-.106-.9-.141-1.422-.21-2.317h-.474a4.869 4.869 0 00-1.773.491c-.685.246-1.141.334-1.826.562a4.047 4.047 0 01-1.475.421c-.615 0-.685-.72-1.194-1.053-.527-.352-.773-.667-1.335-.983a4.51 4.51 0 01-1.685-1.264c-.368-.51-.684-.983-1.334-.983-.633 0-.983.14-1.616.14-1.018 0-1.51-.562-2.457-.913-.3-.106-.527-.122-.843-.21a16.4 16.4 0 01-1.545-.562c-.229-.089-.474-.089-.632-.281a2.677 2.677 0 01-.562-1.685l-.421-.071c-1.071.158-1.685.122-2.738.281a9.218 9.218 0 01-1.545.281 2.843 2.843 0 01-1.4-.421 5.634 5.634 0 01-1.686-1.264 10.708 10.708 0 00-1.756-1.264 7.347 7.347 0 00-2.6-1.4c-.686-.175-1.16-.21-1.826-.421-.211-.07-.352-.141-.561-.21-.124-.036-.14-.212-.281-.212-.51 0-.633.492-1.054.773a7 7 0 00-.843.562c-.281.245-.387.509-.7.7-.193.123-.421.035-.562.21s-.07.4-.141.633a4.69 4.69 0 00-.281.843 8.059 8.059 0 01-.07 1.124 7.52 7.52 0 01-.633 1.755c-.105.211-.351.316-.351.562 0 .386.351.544.632.773a8.181 8.181 0 001.4.843 12.944 12.944 0 012.458 1.264c.438.368.631.684 1.053 1.052.175.159.387.211.492.421.035.088-.018.193 0 .281a8.173 8.173 0 01.281.843 6.542 6.542 0 01.351 1.72c0 .686-.281 1.036-.281 1.721 0 .6.4.895.773 1.334a9.932 9.932 0 01.772 1.124 3.044 3.044 0 01.773 1.826c0 .773-.211 1.194-.211 1.966 0 .667.474.948.773 1.545a1.239 1.239 0 001.123.773 11.707 11.707 0 013.511.421 4.276 4.276 0 012.6 2.457 16.261 16.261 0 011.054 2.318c.175.509.491.79.491 1.334a3.948 3.948 0 01-.632 1.9 10.188 10.188 0 01-.843 1.686c-.124.175-.352.263-.352.491 0 .492.334.7.562 1.124.527 1 1 1.492 1.475 2.529.087.211.175.352.281.562.052.122.281.122.281.281 0 .509-.37.737-.7 1.123a2.74 2.74 0 01-2.318.913c-.439 0-.386-.614-.421-1.054a4.366 4.366 0 00-.35-1.4 3.044 3.044 0 00-.914-1.334c-.527-.492-.684-1.195-1.4-1.195-.544 0-.825.439-1.053.913a7.706 7.706 0 00-.492 1.826 1.718 1.718 0 01-.281.843 1.844 1.844 0 01-.843.491 3.679 3.679 0 01-1.685.352 6.1 6.1 0 01-2.036-.211c-.458-.141-.632-.562-1.124-.562-.4 0-.562.387-.843.633a6.392 6.392 0 00-1.062 1.32c-.07.106-.21.106-.281.211a2.769 2.769 0 00-.561 1.474 3.322 3.322 0 01-.07.842.7.7 0 01-.7.352c-1.071 0-1.633-.651-2.387-1.4-.246-.246-.4-.562-.773-.562-.386 0-.457.421-.7.7-.368.438-.684.684-1.053 1.124a9.043 9.043 0 00-.914 1.123c-.193.281-.281.632-.631.632-.264 0-.37-.281-.633-.281a4.706 4.706 0 01-.281.843 5.819 5.819 0 00-1.334 2.669 4.328 4.328 0 01-.562 1.756 8.172 8.172 0 01-1.054 1.4 3.271 3.271 0 00-.7.772 12.068 12.068 0 01-.912 1.685c-.159.212-.193.439-.421.562a8.725 8.725 0 01-1.124.421 9.122 9.122 0 00-1.4.913 3.885 3.885 0 00-1.756 1.686c-.421.859-.526 1.439-.912 2.317a10.958 10.958 0 01-.7 1.686c-.141.228-.421.211-.7.211-.651 0-.967-.4-1.545-.7-.386-.193-.667-.176-1.054-.352a5.7 5.7 0 00-1.193-.421 18.448 18.448 0 01-3.933-1.545c-.457-.193-.667-.474-1.123-.7a14.764 14.764 0 01-1.4-.7c-.105-.053-.123-.21-.211-.281-.334-.3-.509-.562-.843-.843a10.821 10.821 0 01-1.264-1.264 4.852 4.852 0 00-1.193-1.264 3.482 3.482 0 00-1.123-.35v-.579c0-.544.281-.842.281-1.387 0-.246-.193-.4-.352-.562a6.913 6.913 0 00-1.334-.913 2.243 2.243 0 01-1.124-2c0-.686.281-1.036.281-1.721 0-1.019-.492-1.545-.492-2.564 0-.649.211-1 .211-1.649a4.525 4.525 0 00-1.545-3.3c-.177-.193-.23-.368-.421-.562a60.285 60.285 0 00-1.9-1.826 7.057 7.057 0 01-.772-.843c-.264-.315-.545-.456-.7-.843-.176-.456-.264-.737-.421-1.193-.211-.58-.317-1.089-.842-1.4-.686-.421-1.264-.492-1.756-1.124a5.194 5.194 0 01-.562-1.123 13.481 13.481 0 00-.772-1.4c-.071-.124-.229-.141-.281-.281-.211-.492-.07-.9-.211-1.4-.21-.738-.65-1.019-1.124-1.616-.561-.72-.948-1.071-1.544-1.755-.457-.527-.562-.983-1.124-1.4a2.9 2.9 0 00-.843-.421 5.311 5.311 0 00-2.247-.562c-.491 0-.772.21-1.264.21a1.353 1.353 0 01-1.124-.351 4.079 4.079 0 01-.491-.843c-.264-.421-.457-.686-.7-1.123-.37-.633-.492-1.054-.842-1.686a5.922 5.922 0 00-.843-1.123c-.141-.177-.352-.317-.352-.562 0-.141.175-.158.211-.281a2.324 2.324 0 00.211-.843 8.868 8.868 0 00-.843-2.6c-.281-.509-.6-.983-1.194-.983-.211 0-.352.122-.561.141a10.131 10.131 0 00-2.178.421c-.421.122-.631.315-1.052.421a8.442 8.442 0 00-2.037.983c-.421.228-.72.369-1.123.633-.088-.053-.246 0-.281-.071a7.594 7.594 0 01-.561-1.4c-.509-1.124-.7-1.791-1.264-2.879a15.381 15.381 0 00-1.4-2.458c-.316-.421-.351-.772-.632-1.194a1.289 1.289 0 00-1.072-.7h-1.878l-.561.141h-.633a4.445 4.445 0 00-.421-2.107 13.239 13.239 0 00-.843-1.123c-.158-.23-.351-.4-.351-.7 0-.4.228-.6.281-.983.052-.317-.089-.526 0-.843a.938.938 0 01.912-.7 1.543 1.543 0 01.843.21c.123.053.123.281.281.281.614 0 .7-.79.7-1.4a2.408 2.408 0 00-.21-1.053 13.417 13.417 0 001.4-.7c.369-.23.421-.58.772-.843.122-.089.263-.089.352-.211a5.452 5.452 0 00.421-.843 1.811 1.811 0 011.4-1.053 3.465 3.465 0 001.123-.211c.3-.141.3-.562.631-.562.9 0 1.335.544 2.107.983a7.6 7.6 0 001.124-2.528c.228-.808-.018-1.4.421-2.107.158-.263.315-.491.632-.491a3.689 3.689 0 011.826.631 5.037 5.037 0 011.4 1.194c.245.245.351.562.7.562.315 0 .421-.264.631-.492a2.718 2.718 0 00.562-.843c.4-1 .4-1.861 1.264-2.528.281-.21.544-.3.843-.491a6.008 6.008 0 001.116-1.303c.263-.3.614-.352.843-.7a2.518 2.518 0 00.316-1.528v-2.686l.387-2.669a7.553 7.553 0 003.23-.843 4.079 4.079 0 001.756-1.686c.21-.352.491-.562.491-.983 0-.439-.334-.615-.631-.913a6.391 6.391 0 01-1.054-1.4 8.591 8.591 0 00-.983-1.123c-.527-.615-.825-1.036-1.4-1.615-.878-.878-1.37-1.44-2.247-2.318-.193-.193-.387-.281-.562-.491a6.193 6.193 0 00-.421-.562 13.306 13.306 0 01-1.685-1.756c-.667-.386-1.036-.65-1.685-1.053-.421-.264-.808-.334-1.124-.7-.14-.159-.122-.37-.21-.562-.141-.3-.352-.387-.562-.633a5.56 5.56 0 00-1.054-.983c-.281-.21-.474-.491-.843-.491a1.822 1.822 0 00-1.123.491 2.741 2.741 0 01-.912.352 3.718 3.718 0 01-1.335.421 2.163 2.163 0 01-1.545-.562 1.91 1.91 0 01-.421-.562c-.053-.088 0-.229-.07-.281-.158-.106-.352 0-.562 0-1.616 0-2.44-.071-4.056-.071-.369 0-.474.387-.65.7a6.18 6.18 0 00-.632 1.756 14.181 14.181 0 00-.211 1.474 10.447 10.447 0 00-.351 1.633c0 .264.052.421.07.685a6.681 6.681 0 00-4.143 1.334 3.831 3.831 0 01-.773-1.615c-.334-1.036-.44-1.932-1.4-2.459-.808-.439-1.474-.21-2.388-.35-.79-.124-.861-.983-1.334-1.616-.053-.07-.193-.018-.281-.07a15.009 15.009 0 00-3.442.07c-.527.105-.684.579-.912 1.054-.158.333-.386.509-.562.843-.229.421-.4.807-.843.983-.561.245-1.071.192-1.4.7-.738 1.106-.614 2.036-.773 3.371-.088.807-.159 1.228-.281 2.036h-.631l-1.701-.423a1.726 1.726 0 00-.843.983 5.894 5.894 0 00-.492 1.545 3.792 3.792 0 01-.843-.421c-.684-.457-.912-.983-1.686-1.264a14.083 14.083 0 00-1.4-.421 1.022 1.022 0 01-.843-.912c0-.773.7-1.054 1.335-1.475.421-.281.684-.527 1.123-.772.4-.23.912-.37.912-.843 0-.37-.246-.58-.491-.843-.334-.37-.615-.545-.983-.913v-2.126a6.177 6.177 0 00-.773-2.37 14.161 14.161 0 00-.772-2.247 4.413 4.413 0 00-1.545-1.4 11.057 11.057 0 01-1.124-1.264l-2.88 1.195c-.281-.036-.439-.158-.7-.071-.474.175-.509.614-.772 1.054-.158.281-.457.263-.773.351l-1.4-.351a4.544 4.544 0 00-.7.07c-.737.211-1.018.667-1.686 1.054a3.272 3.272 0 01-1.826.421c-.685 0-.93-.738-1.053-1.4a3.085 3.085 0 00-.071-.562c-.281-.685-.7-1-.772-1.756a8.94 8.94 0 00-.211-1.686c-.175-.615-.562-.877-.912-1.4s-.58-.861-.914-1.4a5.741 5.741 0 01-.421-1.123 5.393 5.393 0 01-.562-1.4 7.6 7.6 0 00-.14-1.685c-.106-.334-.263-.509-.351-.843-.141-.491-.264-1-.773-1.124a8.133 8.133 0 00-2.247-.35c-.9 0-1.37.631-1.9 1.334-.281.387-.492.773-.983.773-.387 0-.6-.141-.983-.141-.651 0-.983.4-1.545.7a5.564 5.564 0 01-2.107.7l-2.037-.421a4.342 4.342 0 01-.649.141h-1.667a3.378 3.378 0 01-.633-1.054c-.228-.474-.562-.667-.843-1.123a2.557 2.557 0 00-1.474-1.193c-1.616-.6-2.564-.861-4.214-1.335a6.926 6.926 0 01-1.4-.562c-.246-.123-.439-.175-.562-.421-.281-.527-.246-1.018-.7-1.4a1.569 1.569 0 00-.843-.281 10.46 10.46 0 00-2.669-.21 4.619 4.619 0 01-.843.07 6.525 6.525 0 01-.843-.21 19.426 19.426 0 01-3.02-.492 3.051 3.051 0 01-1.193-.35c-.861-.562-1.247-1.16-2.247-1.4a6.458 6.458 0 00-1.844 0h-1.439c-.6 0-.738-.667-1.211-.983a5.813 5.813 0 00-1.4-.562 9.32 9.32 0 01-1.4-.633c-.7-.387-1.019-.983-1.826-.983-.387 0-.527.352-.7.7-.193.4-.421.6-.632.983a14.023 14.023 0 00-.94 2.012 3.538 3.538 0 01-.7 1.4c-.246.245-.562.281-.843.491a5.2 5.2 0 01-1.054.7c-.21.106-.316.281-.562.281-.615 0-.7-.7-1.053-1.193-.141-.211-.37-.264-.492-.492-.07-.14 0-.281 0-.456a5.214 5.214 0 000-1.65c-.106-.387-.421-.58-.421-.983 0-.58.7-.755.7-1.334 0-.352-.351-.492-.351-.842a4.24 4.24 0 01.281-1.4c.088-.281.351-.4.351-.7 0-.686-.58-.913-.843-1.545a13.173 13.173 0 00-.7-1.966c-.263-.474-.333-.879-.772-1.194-.37-.263-.668-.368-.914-.772-.053-.089 0-.211-.07-.281-.141-.14-.37-.105-.562-.14a11.516 11.516 0 01-1.756-.352 8.283 8.283 0 01-2.809-1.474 3.068 3.068 0 01-1.4-2.178 2.949 2.949 0 00-.562-1.756c-.21-.3-.439-.439-.562-.772a20.446 20.446 0 01-.631-2.528c-.177-.755-.177-1.211-.352-1.967a11.447 11.447 0 01-.35-3.09c0-.281.3-.368.491-.562a13.831 13.831 0 00.983-1.054 3.94 3.94 0 00.983-1.615c.018-.106.14-.158.14-.281 0-.544-.175-.861-.21-1.4a5.462 5.462 0 00-.352-1.686 3.433 3.433 0 00-.281-.843c-.369-.58-.965-.562-1.614-.773-.9-.3-1.457-.421-2.318-.772a2.879 2.879 0 01-.912-.352c-.317-.175-.281-.562-.352-.912a14.835 14.835 0 01-.281-1.756l-.281-.07a9.357 9.357 0 00-1.826.632c-.4.176-.615.421-1.053.421-.176 0-.246-.141-.421-.141-.14 0-.123.193-.211.281a3.034 3.034 0 00-.351.562c-.141.23-.37.3-.421.562-.071.334-.018.615-.281.843-.071.053-.193.036-.281.071a1.372 1.372 0 01-.7.14 1.081 1.081 0 01-1.124-1.036v-2.148a19.628 19.628 0 00-.352-3.354 7.462 7.462 0 00-.21-.842 15.013 15.013 0 00-2.107.913c-.457.21-.808.21-1.264.421-.421.193-.281.737-.352 1.193a8.72 8.72 0 01-.421 2.247c-.087.229-.035.527-.28.633a3.78 3.78 0 01-1.72.14 2.581 2.581 0 01-1.51-.632 1.588 1.588 0 01-.912-1.334 3.085 3.085 0 01.141-.983c.052-.211.21-.333.21-.562 0-.352-.439-.4-.772-.492-.421-.122-.7-.122-1.124-.21a2.832 2.832 0 01-1.686-.773c-.229-.228-.3-.562-.632-.562-.421 0-.474.51-.7.842a.981.981 0 01-.843.492c-.614 0-.9-.439-1.4-.773-.088-.052-.193-.017-.281-.069a2.8 2.8 0 01-.843-1.195c-.175-.3-.281-.631-.632-.631-.281 0-.37.3-.562.491a10.377 10.377 0 00-.7.843c-.58.667-.843 1.123-1.475 1.756-.649.649-1.352.561-2.176.983a1.648 1.648 0 00-.983 1.545 3.394 3.394 0 00.351 1.615 7.625 7.625 0 00.773 1.194c.175.263.3.562.631.562a2.147 2.147 0 001.264-.492c.3-.192.474-.491.842-.491.352 0 .352.456.492.772a2.641 2.641 0 00.35.562 9.931 9.931 0 01.632.843c.123.211.281.317.281.562 0 .421-.51.474-.7.843a2.67 2.67 0 00-.352 1.422v2.283a5.6 5.6 0 01-.491 2.125 3.142 3.142 0 01-.983 1.474c-.246.211-.561.3-.561.632a1.838 1.838 0 00.631 1.264 3.053 3.053 0 00.492.562 5.139 5.139 0 01.562.491c.141.141.35.211.35.421 0 .7-.631 1-.631 1.7v1.369c0 .6-.317.912-.421 1.492a11.079 11.079 0 00-.211 2.528h-4.2c-.246 0-.368-.193-.579-.281a7.528 7.528 0 00-1.545-.773 9.386 9.386 0 00-2.475-.491h-1.58a9.679 9.679 0 00-2.827.421 2.512 2.512 0 01-.7.21c-.772 0-1.053-.843-1.826-.843-.79 0-1.176.4-1.9.7-.211.089-.333.211-.562.211-.246 0-.246-.421-.492-.421-.631 0-.9.614-1.4.983a22.912 22.912 0 00-1.054 2.318 26.335 26.335 0 00-1.4 2.809 11.448 11.448 0 00-.912 2.6c-.035.334.123.58-.071.843-.263.352-.684.281-1.123.352a6.132 6.132 0 01-.983.141 4.89 4.89 0 01-2.107-.492 9.113 9.113 0 01-1.474-.631c-.492-.3-.684-.773-1.264-.773-.914 0-1.054 1.264-1.967 1.264-.387 0-.456-.474-.562-.843-.087-.315-.14-.527-.211-.843a6.5 6.5 0 01-.281-1.826h-.825c-.615 0-.949.352-1.563.352-.631 0-.807-.6-1.334-.913a6.055 6.055 0 00-1.967-1.053 2.939 2.939 0 00-.562 0c-.105.017-.158.141-.281.141-.352 0-.509-.264-.842-.352-.316-.087-.544-.035-.843-.14a19.116 19.116 0 01-2.247-1.124c.122-.544.334-.861.421-1.4a6.018 6.018 0 01.351-1.685 8.9 8.9 0 01.562-.843 3.667 3.667 0 00.492-1.475 2.946 2.946 0 01.631-1.545c.421-.526.983-.579 1.264-1.193.036-.088-.017-.193 0-.281a10.291 10.291 0 00.141-2.756c0-.7.053-1.107 0-1.809h-.613c-.158 0-.211.124-.37.141-.578.089-.894 0-1.474.071a9.361 9.361 0 00-2.037.7c-.754.246-1.228.4-1.966.7a4.448 4.448 0 00-1.123.7c-.281.21-.473.491-.843.491-.4 0-.562-.351-.843-.632-.3-.3-.65-.4-.843-.773-.052-.122-.21-.141-.21-.281a4.251 4.251 0 01.983-2.317c.193-.352.21-.633.491-.914.071-.07.211-.017.281-.07a3.337 3.337 0 00.983-1.4 10.149 10.149 0 001.054-2.88 11.131 11.131 0 00.491-2.387 2.219 2.219 0 00-1.264-1.967c-.351-.21-.509-.473-.843-.7a4.091 4.091 0 01-1.053-1.264 3.814 3.814 0 01-.352-.562c-.175-.421-.3-.912-.772-.912-.861 0-1.246.631-2.107.631a1.6 1.6 0 01-1.264-.772 3.8 3.8 0 00-.562-.492 6.936 6.936 0 00-.843-.772 14.681 14.681 0 00-1.4-.913c-.3-.141-.527-.228-.843-.351-.334-.141-.633-.334-.633-.7 0-1.141 1.194-1.527 1.194-2.669a.818.818 0 00-.773-.843c-.772 0-1.018.861-1.193 1.614-.106.457-.281.686-.421 1.124a4.425 4.425 0 01-.352.843c-.122.246-.21.562-.491.562-.4 0-.6-.333-.843-.632-.6-.7-.825-1.616-1.756-1.616a1.976 1.976 0 00-1.686.7c-.315.37-.421.633-.772.983a4.061 4.061 0 01-.983.633 2.4 2.4 0 01-1.4.562 4.05 4.05 0 01-1.475-.421 3.628 3.628 0 01-1.686-.773v-1.985a1.241 1.241 0 00-1.334-1.107 19.721 19.721 0 00-2.458.281c-.369.036-.544.212-.912.212a2.5 2.5 0 01-1.9-1.124 3.933 3.933 0 00-1.4-1.123 4.818 4.818 0 01-.7-.281c-.3-.193-.473-.492-.843-.492-.491 0-.544.58-.7 1.054a4.089 4.089 0 01-.491.912 2.422 2.422 0 01-1.054.913c-.316.175-.7.263-.7.631 0 .7.281 1.089.281 1.791a7.847 7.847 0 01-.351 2c-.158.721-.211 1.335-.843 1.686-.334.176-.773.193-.843.562-.141.633.106 1.054 0 1.686-.071.439-.352.667-.352 1.123 0 .281.352.334.561.492a2.984 2.984 0 01.843.7 8.214 8.214 0 00.843 1.334l4.775-1.966c.089.053.246 0 .281.071a1.948 1.948 0 01.211.561 4.327 4.327 0 01.21 1.334c0 .421-.351.633-.7.843a5.289 5.289 0 01-.843.421c-.281.105-.632.123-.632.421 0 .579.772.685.772 1.264 0 .176-.21.246-.21.421 0 .246.263.334.421.492a4.31 4.31 0 001.053.983 4.938 4.938 0 001.756.421 8.92 8.92 0 011.685.351c.825.3 1.089 1.054 1.967 1.054.562 0 .843-.352 1.4-.352.579 0 .825.492 1.193.914a2.191 2.191 0 01.7 1.545c0 .457-.368.631-.631.983a3.5 3.5 0 00-.983 1.966c-.035.58-.106.9-.141 1.474-.018.212.106.4 0 .562-.14.193-.4.158-.633.211a2.909 2.909 0 01-.562.141 5.842 5.842 0 01-1.755-.211c-.228-.052-.315-.281-.562-.281s-.386.211-.562.352c-.315.263-.509.457-.842.7a5.484 5.484 0 01-1.756.7 19.723 19.723 0 00-2.317 1.053 2.508 2.508 0 01-1.194.421c-.613 0-.93-.4-1.334-.843-.456-.491-.877-.7-1.194-1.334a20.787 20.787 0 01-3.019 1.474 2.551 2.551 0 01-1.194.492c0 .544.117.859.1 1.4a3.449 3.449 0 01-.169.844c-.175.738-.786.815-1.261 1.377a4.03 4.03 0 01-1.479 1.292c-.843.4-1.088 1.054-1.966 1.335-.4.122-.7.192-1.123.281a10.488 10.488 0 01-2.669.21 3.042 3.042 0 00-.562 0c-.263.053-.332.352-.562.492a4.393 4.393 0 00-.912.562 4.591 4.591 0 01-1.966 1.264c-.456.141-.684.385-1.123.562-.4.158-.72.158-1.123.281a13.667 13.667 0 00-2.037.843c-.754.368-.894 1.053-1.193 1.826-.088.228-.352.263-.562.351a3.954 3.954 0 01-1.861.352c-.4 0-.615-.141-1.019-.141-.877 0-1.088 1.123-1.967 1.123a4.225 4.225 0 01-2.247-.633c-.473-.263-.719-.509-1.193-.772a5.685 5.685 0 01-1.054-.843c-.1-.089-.122-.281-.281-.281-.421 0-.631.281-.983.491-.6.368-.947.544-1.545.913-.93.578-1.755.772-2.247 1.755a14 14 0 01-1.123 1.756c-.281.438-.456.86-.983.983a8.659 8.659 0 01-2.423.21c-.228 0-.368-.141-.6-.141-.316 0-.387.352-.492.633a3.44 3.44 0 01-.491.842c-.439.631-1.054.965-1.054 1.755 0 1.105.72 1.616 1.335 2.528.263.4.631.633.631 1.124 0 .228-.21.334-.35.492-.175.192-.316.351-.492.562a4.09 4.09 0 01-.842.7c-.228.158-.4.351-.7.351-.7 0-.983-.562-1.474-1.053-.193-.193-.281-.421-.562-.421-.387 0-.421.491-.562.843a8.215 8.215 0 00-.421 1.474 5.921 5.921 0 01-.421 1.475.848.848 0 01-.773.562c-.438 0-.631-.229-1.053-.352a5.417 5.417 0 01-1.4-.421c-.544-.315-.737-.808-1.335-1.052a8.05 8.05 0 00-1.966-.352c-.526-.088-.878-.035-1.4-.141-.385-.07-.578-.351-.983-.351a5.337 5.337 0 00-1.9.562 16.346 16.346 0 01-2.247.631 6.266 6.266 0 01-1.264.281c-.474 0-.72-.21-1.195-.21-.385 0-.578.3-.772.631-.211.369-.368.6-.562.983-.211.421-.439.773-.913.773a1.921 1.921 0 01-1.615-.843c-.246-.317-.456-.51-.7-.843a3.7 3.7 0 01-.352-.632c-.1-.21-.1-.562-.35-.562-.352 0-.527.228-.843.352-.246.088-.456.122-.7.21-1.105.439-1.773.615-2.88 1.054a4.092 4.092 0 00-.912.351c-.088.053-.228 0-.281.071s.018.193 0 .281a2.523 2.523 0 01-.14.631c-.456.843-1.37.913-2.335.913-.65 0-1-.071-1.65-.071a6.26 6.26 0 01-1.492-.281c-.65-.141-.948-.562-1.616-.562-.578 0-.843.334-1.334.633a6.646 6.646 0 00-1.4.983c-.246.245-.422.491-.79.491a4.481 4.481 0 01-.685 0 3.282 3.282 0 00-.07.58c0 .6.315.877.632 1.387.561.913 1.123 1.457 1.123 2.529a3 3 0 01-.188 1.145.729.729 0 01-.069.281c-.123.158-.369.106-.562.211a2.129 2.129 0 00-.7.772c-.211.316-.352.544-.562.843-.3.406-.725.644-.979.982l225.644 150.43h357.029l-.026-.075c-.089-.211-.281-.333-.352-.562-.141-.4-.106-.72-.281-1.123-.122-.281-.491-.317-.491-.633 0-.175.157-.228.281-.35.3-.3.544-.4.843-.7.6-.6 1.141-.86 1.334-1.686a1.912 1.912 0 01.843-1.264c.4-.3.773-.3 1.195-.562.281-.177.562-.3.562-.633 0-.581-.718-.6-1.262-.773z" fill="#fff"/><path data-name="Path 6" d="M163.632 92.62a1.012 1.012 0 00-.216.634c0 .228.23.315.352.491.246.333.263.684.632.913.281.175.633.228.633.562 0 .438-.527.526-.913.7a3.241 3.241 0 00-1.053.843c-.755.754-1.6.843-2.177 1.755a1.953 1.953 0 01-.632.773c-.509.315-.965.368-1.335.843-.6.772-.613 1.474-1.193 2.247a8.894 8.894 0 01-.773-.562c-.737-.667-1.176-1.335-2.177-1.335-.386 0-.6.211-.983.211-.3 0-.4-.264-.633-.421a2.083 2.083 0 00-.562-.28c-.438-.177-.983-.23-.983-.7 0-.281.211-.422.211-.7a3.685 3.685 0 00-.421-1.264c-.228-.686-.246-1.264-.843-1.686a12.8 12.8 0 01-1.124-.773 21.082 21.082 0 00-2.528-1.474 19.125 19.125 0 01.35 3.019 10.871 10.871 0 01.281 1.264 1.614 1.614 0 01-.7 1.194c-.192.175-.421.192-.631.351a16.067 16.067 0 01-2.247 1.194c-.246.123-.333.351-.562.491-.72.492-1.4.877-1.4 1.756 0 .368.106.6.106.965v1.51a1.2 1.2 0 01-.177.825c-.21.281-.509.3-.842.421a8.1 8.1 0 00-.843.492 4.042 4.042 0 01-2.107.562c-.613 0-.684-.738-.843-1.335a10.954 10.954 0 00-.561-1.826c-.122-.315-.21-.7-.562-.7-.245 0-.333.211-.562.281a3.421 3.421 0 01-1.123.14 1.491 1.491 0 00-1.474.773 4.064 4.064 0 01-.914 1.615c-.175.158-.315.315-.491.492-.211.21-.562.3-.562.613 0 .281.141.439.141.721 0 .122-.071.211-.071.333 0 .808-.562 1.176-.562 1.985 0 .491.281.772.281 1.264a2.773 2.773 0 01-1.124 2.036 5.338 5.338 0 00-.983 1.4c-.281.509-.7.65-1.053 1.124a3.273 3.273 0 00-.7 1.966 7.513 7.513 0 01-.14 1.264 1.217 1.217 0 01-.141.562.949.949 0 01-.843.281c-.58 0-.861-.3-1.4-.491a5.137 5.137 0 00-1.966-.492c-.79 0-1.246.14-2.037.14-.843 0-1-.948-1.264-1.755-.369.369-.333.843-.772 1.124-.3.192-.527.245-.843.421a9.707 9.707 0 01-1.4.843 14.229 14.229 0 01-1.756.421 8.963 8.963 0 01-2.247.351c-1.527 0-2.264-.983-3.792-.983-.613 0-.754.738-.843 1.335a11.252 11.252 0 01-.421 2.177 10.13 10.13 0 00-.281 2.318c-.035.333-.21.491-.21.825v1.439c0 .474.21.7.21 1.176a2.271 2.271 0 01-.069.914c-.088.228-.316.316-.492.491-.192.193-.192.421-.421.562a7.2 7.2 0 01-.843.352c-.772.385-1 .983-1.4 1.755a3.9 3.9 0 00-.351.773 8.087 8.087 0 00-.7 1.334c-.053.088 0 .228-.071.281-.4.316-.877.053-1.4.14-.878.141-1.387.281-2.247.492a4.243 4.243 0 01-1.124.281c-.737 0-.983-.633-1.614-.983-.685-.386-1.142-.51-1.826-.913a15.469 15.469 0 01-1.475-1.123 7.844 7.844 0 00-.983-.562c-.509-.3-.754-.562-1.264-.843a18.6 18.6 0 01-2.809-1.615 8.95 8.95 0 00-3.3-1.756c-.474-.141-.72-.4-1.195-.562-.157.755-.228 1.211-.421 1.966a8.691 8.691 0 01-.491 1.335c-.122.281-.175.631-.492.631-.843 0-1.141-.684-1.9-1.053-.158-.071-.246-.211-.421-.211a4.449 4.449 0 00-1.475.421 10.1 10.1 0 00-1.193.492 2.635 2.635 0 00-1.195.7 11.91 11.91 0 00-.983 1.474 2.714 2.714 0 01-1.615 1.335 3.647 3.647 0 00-.914.281 1.65 1.65 0 00-.421.491 3.593 3.593 0 00-.631 2.37v.932a2.848 2.848 0 01-2.037-1.4 7.05 7.05 0 00-1.545-1.616c-.281-.246-.456-.562-.843-.562a1.276 1.276 0 00-.561.211 3.106 3.106 0 00-1.123.7c-.263.263-.333.632-.7.632a4.01 4.01 0 01-2.317-.983c-.211-.122-.4-.158-.633-.281-.245-.122-.4-.351-.7-.351-.351 0-.473.316-.772.491a3.074 3.074 0 00-.352.141c-.562.421-.666 1.018-1.334 1.264-1.105.4-1.9.035-2.949.562a9.027 9.027 0 01-2.95 1.054 14.219 14.219 0 01-2.546.491h-1.417c-.088.071-.228.035-.281.141-.316.65-.211 1.195-.633 1.756a4.554 4.554 0 01-.772.772c-.3.263-.615.386-.773.773a4.7 4.7 0 00-.21 1.4 3.874 3.874 0 00-.141.649v2c0 .509-.544.79-1.054.79a3.9 3.9 0 01-1.264-.281c-.281-.088-.4-.281-.7-.281-.544 0-.807.368-1.264.633a2.877 2.877 0 00-1.474 1.4 4.161 4.161 0 00-.281 1.474c-.035.334-.175.527-.211.843a1.425 1.425 0 01-.631 1.054l-.843.21a2 2 0 00-.843-.21c-.614 0-.9.666-.983 1.264a12.414 12.414 0 00-.352 2.264v1.791c0 .228.071.4-.07.58-.334.421-.861.332-1.4.421-.316.052-.509.175-.843.21a3.012 3.012 0 00-.983.071c-.439.175-.527.6-.7 1.052a13.859 13.859 0 01-.632 1.616c-.192.385-.438.544-.631.912a5.242 5.242 0 00-.913 2.809 12.818 12.818 0 00.141 1.4c0 .122.14.158.14.281 0 .193-.1.3-.14.492h-.562c-.123-.018-.158-.141-.281-.141s-.158.123-.281.141v1.105a3.541 3.541 0 01-.07 1.492 1.66 1.66 0 01-.281.562c-.315.334-.773.456-.773.93v2.493c0 .228-.122.351-.141.58-.035.332.036.509 0 .842a14.787 14.787 0 00-.351 1.7v1.439c0 .281.21.37.421.562-.544 0-.842.018-1.387.018a2.472 2.472 0 01-.861-.281 4.222 4.222 0 01-1.4-.772c-.421-.352-.615-.668-1.054-.983a6.566 6.566 0 01-.843-.7c-.245-.246-.562-.352-.562-.7 0-.7.492-1.054.492-1.756 0-.281-.14-.421-.14-.7a2.023 2.023 0 01.21-.7 5.749 5.749 0 00.633-2.247c0-.737-.615-1.089-1.264-1.4a15.807 15.807 0 01-1.4-.772c-.544-.317-.6-.879-1.124-1.264a4.219 4.219 0 00-1.686-.773c.334-.6.509-1.334 1.211-1.334h1.932c.263 0 .368-.23.578-.352a10.272 10.272 0 00-1.545-1.614c-.544-.492-.807-1.124-1.562-1.124h-3.9c-.808 0-1-1-1-1.809v-1.51c0-.228-.157-.332-.21-.544a5.255 5.255 0 01-.211-1.474 2.943 2.943 0 01.633-1.756c-.825-.912-1.685-.965-2.809-1.474-.861-.387-1.37-.545-2.247-.913-.246-.106-.281-.421-.562-.421a4.118 4.118 0 00-1.264.352c-.79.228-1.264.351-2.037.631a3.213 3.213 0 01-1.194.352c-.474 0-.649-.492-1.123-.492-.246 0-.352.246-.562.352.088.21.018.421.21.562.527.4 1.089.141 1.686.422a1.257 1.257 0 01.7.983l-.351 2.107c.141.843.808 1.088 1.4 1.686a1.9 1.9 0 01.631 1.474c0 .246-.175.352-.281.562a2.166 2.166 0 01-1.264.983c-.807.334-1.141.755-1.967 1.054-.562.21-1.071.088-1.4.562-.245.351.071.7 0 1.124-.017.122-.175.158-.21.281a2.309 2.309 0 00-.141.772c0 .368.509.3.843.421a1.9 1.9 0 01.561.352 3.548 3.548 0 01.843 1.124 2.788 2.788 0 002.107 1.124c.315.052.509.1.843.141.35.035.631-.106.912.07.421.262.352.773.7 1.123.3.3.668.334.843.7a6.617 6.617 0 01.211.843 2.245 2.245 0 00.843 1.054c.58.491.861.859 1.4 1.4.861.859 1.317 1.4 2.106 2.317a11.806 11.806 0 011.474 2.247 3.869 3.869 0 01.843 2.106c0 .877-.614 1.23-1.193 1.9a7.22 7.22 0 00-1.124 1.686 2.892 2.892 0 00-.492 1.439 9 9 0 00.352 1.51c.14 1-.122 1.7.351 2.6.246.474.667.562 1.123.843s.667.562 1.124.843a6.671 6.671 0 011.616 1.264l-.071.281c.124.035.141.211.281.211.123 0 .158-.14.281-.14 1.16-.036 1.738-.562 2.9-.562.263 0 .421.052.684.07.035.544-.053.86 0 1.4a19.165 19.165 0 01.35 2.422c0 1.054-.842 1.51-.842 2.565 0 .385.492.4.842.562.124.052.124.21.212.281.316.281.474.7.912.7.51 0 .773-.281 1.282-.281h1.37c.4 0 .6.228.93.421.474.262.9.438 1.053.983a9.568 9.568 0 00.352 1.264c.175.385.4.772.843.772.667 0 1.018-.228 1.686-.281a2.852 2.852 0 00.632 1.4c.457.457.861.615 1.335 1.054a13.821 13.821 0 001.4 1.053 8.791 8.791 0 001.4.983c.737.368.965.877 1.686 1.264a9.345 9.345 0 001.193.562c.562.211.983.175 1.4.562.51.474.421 1.054.421 1.756.246.017.37.07.614.07 1.089 0 1.6-.772 2.686-.772.631 0 .649.79 1.053 1.264.37.438.72.579 1.124.983.421.421.773.6 1.194.983.368.332.843.526.843 1.053 0 .122-.122.175-.14.281-.141.861-.7 1.176-1.195 1.9-.509.754-1.264 1.053-1.264 1.966a1.744 1.744 0 001.054 1.545 15.021 15.021 0 001.686.843 24.956 24.956 0 002.317 1.264c.317.1.527.1.843.21.7.421 1.353.018 2.106.352a1.091 1.091 0 01.562.983 20.715 20.715 0 01.352 2.738 2.87 2.87 0 01-.281 1.545c-.246.456-.7.492-1.123.773-.334.228-.492.491-.843.7a2.031 2.031 0 00-1.191 1.768 2.581 2.581 0 01-1.124 2.178c-.21.158-.316.4-.562.491-.473.175-.894.159-1.193.562-.316.44-.071.878-.071 1.44a2.856 2.856 0 01-1.264 2.493c-.438.316-.754.509-1.193.842-.368.281-.737.492-.737.965v2.829l.491 2.668v1.9a3.634 3.634 0 00-.877 0c-.614.141-.843.562-1.4.843a14.679 14.679 0 00-2.107 1.053c-.527.387-.737.808-1.335 1.054-.332.141-.578.21-.912.351-.456.211-.755.334-1.194.562-.316.175-.631.334-.631.7 0 .352.263.509.351.843a21.973 21.973 0 00.561 2.669c.387.965 1.036 1.335 1.545 2.247a22.6 22.6 0 001.686 2.809 2.227 2.227 0 001.124.913c.614.228 1.089.157 1.685.421a8.558 8.558 0 011.123.631c.439.263.843.334 1.124.773.124.192.089.421.281.562.457.351.966-.036 1.545.069.6.123.949.3 1.545.421a2.58 2.58 0 011.686.7c.545.615.352 1.264.632 2.037.228.613.562.947.562 1.615 0 .86-.983 1.105-.983 1.966 0 .175.175.263.21.421a4.7 4.7 0 01.211 1.4c0 .684-.352 1.071-.352 1.756 0 .509.281.79.421 1.264a5.367 5.367 0 01.141 1.686h.545c.386 0 .561-.281.93-.352a9.766 9.766 0 012.405-.562h.544c.018.106.141.158.141.281 0 .246-.193.352-.281.562a9.12 9.12 0 00-.281 1.194c0 .65-.211 1.035-.211 1.686a2.335 2.335 0 00.421 1.4c.439.65 1.054.965 1.054 1.755 0 1.124-.562 1.721-.562 2.844 0 1.036.58 1.545 1.124 2.424.456.754.562 1.3 1.053 2.036a5.671 5.671 0 001.966 1.9 2.626 2.626 0 01.983.983c.158.262.246.562.562.562.4 0 .527-.421.7-.773a3.1 3.1 0 01.773-1.053 4.148 4.148 0 01.912 1.686 3.239 3.239 0 01.423 1.268c0 .947-.421 1.439-.421 2.388 0 .631.352.965.562 1.545a3.822 3.822 0 01.281 1.545c0 .175-.175.228-.281.351-.245.281-.562.456-.562.843 0 .228.141.352.211.562.368 1 1 1.457 1.123 2.528.088.825.158 1.283.21 2.107.036.439-.052.684 0 1.124a1.682 1.682 0 001.123 1.335c.562.281.914.421 1.475.7 1.282.631 1.985 1.105 3.3 1.685.474.21.738.457 1.194.7a12.939 12.939 0 012.457 1.686 4.282 4.282 0 011.194 1.264 10.007 10.007 0 01.631 1.4 26.85 26.85 0 01.773 3.16 2.151 2.151 0 001.123 1.545c.491.246 1.053.4 1.053.965v1.721c0 .772.6 1.159 1.264 1.527a4.444 4.444 0 002.406.773h1.439a6.135 6.135 0 001.492-.211 2.484 2.484 0 00.7-.21c.317-.158.474-.421.843-.421.246 0 .317.263.492.421a3.734 3.734 0 001.755.843 19.226 19.226 0 002.247.562l.071-.281a1.355 1.355 0 01-.281-.72v-1.808c.105-.018.158-.14.281-.14a4.871 4.871 0 011.123.21c.738.159 1.159.246 1.9.352a13.629 13.629 0 002.037.421c.684 0 1.071-.14 1.755-.14s.966.578 1.264 1.193a2.591 2.591 0 00.913.983 16.22 16.22 0 001.686 1.4 6.432 6.432 0 01.912.632 9.928 9.928 0 011.054 1.053c.21.228.4.3.562.562.175.3.21.615.491.843.422.352.931 0 1.4.281.421.246.474.737.7 1.195l.421 2.878v1.545c.089.088.036.228.141.281.352.175.632.158.983.352a6.554 6.554 0 01.562.421 9.115 9.115 0 011.616.912c.439.369.3.9.421 1.475.122.562.684.65 1.193.912a2.776 2.776 0 011.194 1.475 4.91 4.91 0 01.491 1.4c.106.578.089 1.175.633 1.4.509.21.983.052 1.4.421.825.737.526 1.668.772 2.738a1.587 1.587 0 00.141.562c.176.3.457.334.773.492a8.5 8.5 0 011.124.842c.334.228.58.316.912.562 1.264.983 1.651 1.983 3.02 2.738.562.316 1.071.369 1.4.914a2.4 2.4 0 01.421 1.456v1.51c0 .228.14.334.21.545a4.536 4.536 0 00.352.843 14.571 14.571 0 002.317 3.019c.474.543.686.9 1.195 1.4a7.422 7.422 0 01.631.843 2.09 2.09 0 001.826.7 2.51 2.51 0 00.7-.21 4 4 0 001.264-.421c.474-.281.773-.439 1.264-.7a2.959 2.959 0 011.545-.562 1.907 1.907 0 01.632.07c.509.175.491.737.772 1.194a2.952 2.952 0 001.054.912 25.718 25.718 0 012.6 1.967c.6.509.72 1.071 1.264 1.616l1.826 1.826c.51.509.651.93 1.124 1.474.281.334.545.474.843.773a6.4 6.4 0 01.421.562c.755.877 1.213 1.369 1.967 2.247a6.649 6.649 0 011.264 1.474c.474.948.229 1.685.421 2.739a11.87 11.87 0 01.492 2.457c0 .633-.211.983-.211 1.616a8.585 8.585 0 00.281 2.106 1.912 1.912 0 00-.21.7c0 .316.334.369.562.562.439.368.58.737 1.053 1.053a8.157 8.157 0 011.335 1.123 4.622 4.622 0 001.4.983c.562.281.843.6 1.4.843a5.45 5.45 0 011.4 1.054c.334.281.58.351.912.632a1.138 1.138 0 01.192.214l230.189-153.412L163.631 92.621z" fill="#11457e"/></svg>